# xmcd
# Copyright (C) 1995-1998 Ti Kan
#
# Track frame offsets:
#       182
#       15832
#       27245
#       46432
#       60257
#       77232
#       97695
#       114820
#       126745
#       136032
#       150007
#       166832
#       185632
#       196857
#       220507
#       235607
#
# Disc length: 3303 seconds
#
# Revision: 2
# Processed by: cddbd v1.4PL0 Copyright (c) Steve Scherf et al.
# Submitted via: CD-Transfer v1.0
#
DISCID=b10ce510
DTITLE=Phon Roll - Phon Roll
DYEAR=1889
DGENRE=
TTITLE0=Speed Away
TTITLE1=Honest
TTITLE2=Pretty Thing
TTITLE3=Velvet Elvis
TTITLE4=Dark Side
TTITLE5=Prisoners
TTITLE6=Blue
TTITLE7=What's The Hurry
TTITLE8=Please Don't Touch
TTITLE9=Baby Baby
TTITLE10=Vagabond Moon
TTITLE11=Harry
TTITLE12=Whole Wide World
TTITLE13=North Pole
TTITLE14=Your Sweet Lies
TTITLE15=Sho Shopping
EXTD=
EXTT0=
EXTT1=
EXTT2=
EXTT3=
EXTT4=
EXTT5=
EXTT6=
EXTT7=
EXTT8=
EXTT9=
EXTT10=
EXTT11=
EXTT12=
EXTT13=
EXTT14=
EXTT15=
PLAYORDER=
